<svg width="242" height="242" viewBox="0 0 242 242" fill="none" xmlns="http://www.w3.org/2000/svg">
<g opacity="0.2" filter="url(#filter0_d_4481_21045)">
<path d="M53.1055 74.8178C53.1055 73.561 54.1259 72.543 55.3848 72.543H130.033L145.418 87.898V193.108C145.418 194.365 144.398 195.383 143.139 195.383H55.3848C54.1259 195.383 53.1055 194.365 53.1055 193.108V74.8178Z" fill="white"/>
</g>
<g opacity="0.2" filter="url(#filter1_d_4481_21045)">
<path d="M53.1055 193.108V74.8178C53.1055 73.6394 54.0026 72.6715 55.1522 72.5555L55.3848 72.543H130.033L145.418 87.898V193.108L145.406 193.34C145.298 194.412 144.445 195.263 143.371 195.371L143.139 195.383V88.8398L129.089 74.8178H55.3848V195.383L55.1522 195.371C54.0791 195.263 53.2265 194.412 53.1177 193.34L53.1055 193.108ZM143.139 193.108V195.383H55.3848V193.108H143.139Z" fill="#CCCCCC"/>
</g>
<g opacity="0.4" filter="url(#filter2_d_4481_21045)">
<path d="M62.2231 65.7201C62.2231 64.4633 63.2436 63.4453 64.5025 63.4453H139.151L154.536 78.8004V184.011C154.536 185.268 153.516 186.286 152.257 186.286H64.5025C63.2436 186.286 62.2231 185.268 62.2231 184.011V65.7201Z" fill="white"/>
</g>
<g opacity="0.4" filter="url(#filter3_d_4481_21045)">
<path d="M62.2231 184.011V65.7201C62.2231 64.5418 63.1203 63.5738 64.2699 63.4578L64.5025 63.4453H139.151L154.536 78.8004V184.011L154.523 184.243C154.415 185.314 153.563 186.165 152.489 186.273L152.257 186.286V79.7421L138.207 65.7201H64.5025V186.286L64.2699 186.273C63.1968 186.165 62.3442 185.314 62.2353 184.243L62.2231 184.011ZM152.257 184.011V186.286H64.5025V184.011H152.257Z" fill="#CCCCCC"/>
</g>
<g opacity="0.8" filter="url(#filter4_d_4481_21045)">
<path d="M70.2007 57.7553C70.2007 56.4989 71.2207 55.4805 72.48 55.4805H147.128L162.514 70.8355V176.046C162.514 177.303 161.494 178.321 160.234 178.321H72.48C71.2207 178.321 70.2007 177.303 70.2007 176.046V57.7553Z" fill="white"/>
</g>
<g opacity="0.8" filter="url(#filter5_d_4481_21045)">
<path d="M70.2007 176.046V57.7553C70.2007 56.5773 71.0976 55.609 72.2475 55.4926L72.48 55.4805H147.128L162.514 70.8355V176.046L162.501 176.278C162.393 177.349 161.54 178.2 160.467 178.308L160.234 178.321V71.7773L146.184 57.7553H72.48V178.321L72.2475 178.308C71.174 178.2 70.3215 177.349 70.2132 176.278L70.2007 176.046ZM160.234 176.046V178.321H72.48V176.046H160.234Z" fill="#CCCCCC"/>
</g>
<g filter="url(#filter6_d_4481_21045)">
<path d="M79.3179 48.6576C79.3179 47.4012 80.3379 46.3828 81.5972 46.3828H156.245L171.631 61.7379V166.948C171.631 168.205 170.611 169.223 169.351 169.223H81.5972C80.3379 169.223 79.3179 168.205 79.3179 166.948V48.6576Z" fill="white"/>
</g>
<g filter="url(#filter7_d_4481_21045)">
<path d="M79.3179 166.948V48.6576C79.3179 47.4796 80.2148 46.5113 81.3647 46.395L81.5972 46.3828H156.245L171.631 61.7379V166.948L171.618 167.18C171.51 168.252 170.657 169.103 169.584 169.211L169.351 169.223V62.6796L155.302 48.6576H81.5972V169.223L81.3647 169.211C80.2911 169.103 79.4387 168.252 79.3304 167.18L79.3179 166.948ZM169.351 166.948V169.223H81.5972V166.948H169.351Z" fill="#AAAAAA"/>
</g>
<path d="M154.536 46.3828L170.491 62.3066H155.675C155.046 62.3066 154.536 61.797 154.536 61.1691V46.3828Z" fill="#AAAAAA"/>
<path d="M80.3391 106.3C80.4884 106.869 80.1784 107.451 79.637 107.652L79.5265 107.688L77.2905 108.281C74.9382 108.895 72.2862 109.51 69.763 109.557C66.4345 109.617 63.1252 108.69 60.904 105.409L60.6919 105.085C60.1696 104.25 60.1627 103.274 60.3449 102.387C60.5291 101.491 60.9372 100.528 61.4532 99.5649C62.4881 97.6336 64.0852 95.4668 65.7222 93.4286C67.3648 91.3835 69.0963 89.4067 70.4103 87.8735C71.0736 87.0989 71.6218 86.4472 72.0115 85.9456C72.2075 85.6931 72.3489 85.4975 72.4412 85.353C72.4845 85.2848 72.5073 85.2438 72.5164 85.2268C72.6748 84.666 73.2378 84.3089 73.8225 84.4181C74.4025 84.5272 74.7969 85.0561 74.7467 85.6317L74.7319 85.7454L74.7023 85.8705C74.6225 86.1583 74.4652 86.4153 74.3627 86.5769C74.2168 86.8055 74.0276 87.0637 73.8145 87.3389C73.3871 87.8894 72.8047 88.5798 72.1437 89.3521C70.808 90.9115 69.1134 92.8429 67.5001 94.8515C65.8818 96.8659 64.395 98.8996 63.4634 100.639C62.9963 101.51 62.6989 102.253 62.5773 102.845C62.4541 103.445 62.5391 103.742 62.6251 103.879L62.7833 104.121C64.4348 106.569 66.8667 107.333 69.7208 107.281C71.9853 107.24 74.3854 106.685 76.6876 106.085L78.9475 105.487L79.0626 105.464C79.6325 105.374 80.1898 105.73 80.3391 106.3Z" fill="#AAAAAA"/>
<path d="M71.9717 77.6339C71.0372 78.3949 69.8496 80.0703 69.8622 81.9891L69.8701 82.2359C69.9875 84.422 71.444 85.4923 72.5164 86.1452L72.9609 86.409L73.0646 86.4636C73.5889 86.7059 74.2214 86.5171 74.5222 86.011C74.8231 85.5048 74.6852 84.8599 74.2214 84.5175L74.1234 84.4527L73.6937 84.1945C72.8093 83.6474 72.2372 83.1617 72.1529 82.2029L72.1415 81.9731C72.1347 80.9279 72.8504 79.8542 73.4111 79.3981C73.8988 79.0022 73.9729 78.2857 73.5752 77.7977C73.1786 77.3109 72.4606 77.2381 71.9717 77.6339Z" fill="#AAAAAA"/>
<path d="M169.464 105.163C169.315 105.733 169.626 106.314 170.167 106.515L170.278 106.552L172.514 107.144C174.865 107.758 177.517 108.374 180.04 108.42C183.369 108.481 186.679 107.554 188.9 104.272L189.112 103.948C189.634 103.113 189.641 102.137 189.458 101.25C189.275 100.354 188.867 99.3916 188.351 98.4282C187.316 96.4969 185.718 94.3301 184.081 92.2919C182.439 90.2468 180.707 88.27 179.393 86.7368C178.731 85.9622 178.181 85.3105 177.792 84.8089C177.596 84.5564 177.454 84.3607 177.363 84.2163C177.319 84.148 177.296 84.1071 177.287 84.09C177.128 83.5293 176.565 83.1721 175.981 83.2813C175.401 83.3905 175.007 83.9194 175.056 84.4949L175.072 84.6087L175.101 84.7338C175.182 85.0216 175.338 85.2786 175.441 85.4401C175.586 85.6688 175.776 85.927 175.989 86.2022C176.417 86.7527 176.998 87.4431 177.661 88.2154C178.996 89.7748 180.691 91.7061 182.304 93.7148C183.922 95.7292 185.408 97.7628 186.34 99.5019C186.808 100.373 187.105 101.116 187.226 101.709C187.349 102.308 187.265 102.605 187.178 102.742L187.021 102.985C185.369 105.432 182.937 106.197 180.082 106.144C177.818 106.103 175.418 105.548 173.116 104.948L170.856 104.351L170.742 104.327C170.171 104.237 169.615 104.593 169.464 105.163Z" fill="#AAAAAA"/>
<path d="M177.831 76.4972C178.767 77.2581 179.955 78.9335 179.941 80.8524L179.933 81.0992C179.816 83.2853 178.359 84.3556 177.288 85.0084L176.842 85.2723L176.739 85.3269C176.214 85.5692 175.582 85.3804 175.281 84.8742C174.98 84.3681 175.118 83.7232 175.583 83.3808L175.68 83.316L176.111 83.0578C176.995 82.5107 177.567 82.025 177.65 81.0662L177.662 80.8364C177.668 79.7911 176.953 78.7174 176.392 78.2613C175.904 77.8655 175.83 77.1489 176.228 76.661C176.626 76.1742 177.344 76.1014 177.831 76.4972Z" fill="#AAAAAA"/>
<path d="M116.593 83.4314L116.672 83.5179C117.036 83.9649 117.01 84.6235 116.593 85.0397C116.176 85.456 115.516 85.4822 115.068 85.1182L114.982 85.0397L108.144 78.2153C107.698 77.7717 107.698 77.0506 108.144 76.607C108.588 76.1623 109.311 76.1623 109.755 76.607L116.593 83.4314Z" fill="#AAAAAA"/>
<path d="M114.982 76.6066L115.068 76.5281C115.516 76.1641 116.176 76.1903 116.593 76.6066C117.01 77.0229 117.036 77.6815 116.672 78.1285L116.593 78.2149L109.755 85.0394C109.311 85.4841 108.588 85.4841 108.144 85.0394C107.698 84.5958 107.698 83.8746 108.144 83.4311L114.982 76.6066Z" fill="#AAAAAA"/>
<path d="M141.666 83.4314L141.744 83.5179C142.109 83.9649 142.083 84.6235 141.666 85.0397C141.248 85.456 140.589 85.4822 140.141 85.1182L140.054 85.0397L133.216 78.2153C132.77 77.7717 132.77 77.0506 133.216 76.607C133.661 76.1623 134.383 76.1623 134.828 76.607L141.666 83.4314Z" fill="#AAAAAA"/>
<path d="M140.054 76.6066L140.141 76.5281C140.589 76.1641 141.248 76.1903 141.666 76.6066C142.083 77.0229 142.109 77.6815 141.744 78.1285L141.666 78.2149L134.828 85.0394C134.383 85.4841 133.661 85.4841 133.216 85.0394C132.77 84.5958 132.77 83.8746 133.216 83.4311L140.054 76.6066Z" fill="#AAAAAA"/>
<path d="M128.324 96.9973C128.324 99.8237 127.048 102.116 125.474 102.116C123.901 102.116 122.625 99.8237 122.625 96.9973C122.625 94.1708 123.901 91.8789 125.474 91.8789C127.048 91.8789 128.324 94.1708 128.324 96.9973Z" fill="#AAAAAA"/>
<defs>
<filter id="filter0_d_4481_21045" x="38.1055" y="64.543" width="122.313" height="152.84" filterUnits="userSpaceOnUse" color-interpolation-filters="sRGB">
<feFlood flood-opacity="0" result="BackgroundImageFix"/>
<feColorMatrix in="SourceAlpha" type="matrix" values="0 0 0 0 0 0 0 0 0 0 0 0 0 0 0 0 0 0 127 0" result="hardAlpha"/>
<feOffset dy="7"/>
<feGaussianBlur stdDeviation="7.5"/>
<feColorMatrix type="matrix" values="0 0 0 0 0.333333 0 0 0 0 0.333333 0 0 0 0 0.333333 0 0 0 0.1 0"/>
<feBlend mode="normal" in2="BackgroundImageFix" result="effect1_dropShadow_4481_21045"/>
<feBlend mode="normal" in="SourceGraphic" in2="effect1_dropShadow_4481_21045" result="shape"/>
</filter>
<filter id="filter1_d_4481_21045" x="38.1055" y="64.543" width="122.313" height="152.84" filterUnits="userSpaceOnUse" color-interpolation-filters="sRGB">
<feFlood flood-opacity="0" result="BackgroundImageFix"/>
<feColorMatrix in="SourceAlpha" type="matrix" values="0 0 0 0 0 0 0 0 0 0 0 0 0 0 0 0 0 0 127 0" result="hardAlpha"/>
<feOffset dy="7"/>
<feGaussianBlur stdDeviation="7.5"/>
<feColorMatrix type="matrix" values="0 0 0 0 0.333333 0 0 0 0 0.333333 0 0 0 0 0.333333 0 0 0 0.1 0"/>
<feBlend mode="normal" in2="BackgroundImageFix" result="effect1_dropShadow_4481_21045"/>
<feBlend mode="normal" in="SourceGraphic" in2="effect1_dropShadow_4481_21045" result="shape"/>
</filter>
<filter id="filter2_d_4481_21045" x="47.2231" y="55.4453" width="122.313" height="152.84" filterUnits="userSpaceOnUse" color-interpolation-filters="sRGB">
<feFlood flood-opacity="0" result="BackgroundImageFix"/>
<feColorMatrix in="SourceAlpha" type="matrix" values="0 0 0 0 0 0 0 0 0 0 0 0 0 0 0 0 0 0 127 0" result="hardAlpha"/>
<feOffset dy="7"/>
<feGaussianBlur stdDeviation="7.5"/>
<feColorMatrix type="matrix" values="0 0 0 0 0.333333 0 0 0 0 0.333333 0 0 0 0 0.333333 0 0 0 0.1 0"/>
<feBlend mode="normal" in2="BackgroundImageFix" result="effect1_dropShadow_4481_21045"/>
<feBlend mode="normal" in="SourceGraphic" in2="effect1_dropShadow_4481_21045" result="shape"/>
</filter>
<filter id="filter3_d_4481_21045" x="47.2231" y="55.4453" width="122.313" height="152.84" filterUnits="userSpaceOnUse" color-interpolation-filters="sRGB">
<feFlood flood-opacity="0" result="BackgroundImageFix"/>
<feColorMatrix in="SourceAlpha" type="matrix" values="0 0 0 0 0 0 0 0 0 0 0 0 0 0 0 0 0 0 127 0" result="hardAlpha"/>
<feOffset dy="7"/>
<feGaussianBlur stdDeviation="7.5"/>
<feColorMatrix type="matrix" values="0 0 0 0 0.333333 0 0 0 0 0.333333 0 0 0 0 0.333333 0 0 0 0.1 0"/>
<feBlend mode="normal" in2="BackgroundImageFix" result="effect1_dropShadow_4481_21045"/>
<feBlend mode="normal" in="SourceGraphic" in2="effect1_dropShadow_4481_21045" result="shape"/>
</filter>
<filter id="filter4_d_4481_21045" x="55.2007" y="47.4805" width="122.313" height="152.84" filterUnits="userSpaceOnUse" color-interpolation-filters="sRGB">
<feFlood flood-opacity="0" result="BackgroundImageFix"/>
<feColorMatrix in="SourceAlpha" type="matrix" values="0 0 0 0 0 0 0 0 0 0 0 0 0 0 0 0 0 0 127 0" result="hardAlpha"/>
<feOffset dy="7"/>
<feGaussianBlur stdDeviation="7.5"/>
<feColorMatrix type="matrix" values="0 0 0 0 0.333333 0 0 0 0 0.333333 0 0 0 0 0.333333 0 0 0 0.1 0"/>
<feBlend mode="normal" in2="BackgroundImageFix" result="effect1_dropShadow_4481_21045"/>
<feBlend mode="normal" in="SourceGraphic" in2="effect1_dropShadow_4481_21045" result="shape"/>
</filter>
<filter id="filter5_d_4481_21045" x="55.2007" y="47.4805" width="122.313" height="152.84" filterUnits="userSpaceOnUse" color-interpolation-filters="sRGB">
<feFlood flood-opacity="0" result="BackgroundImageFix"/>
<feColorMatrix in="SourceAlpha" type="matrix" values="0 0 0 0 0 0 0 0 0 0 0 0 0 0 0 0 0 0 127 0" result="hardAlpha"/>
<feOffset dy="7"/>
<feGaussianBlur stdDeviation="7.5"/>
<feColorMatrix type="matrix" values="0 0 0 0 0.333333 0 0 0 0 0.333333 0 0 0 0 0.333333 0 0 0 0.1 0"/>
<feBlend mode="normal" in2="BackgroundImageFix" result="effect1_dropShadow_4481_21045"/>
<feBlend mode="normal" in="SourceGraphic" in2="effect1_dropShadow_4481_21045" result="shape"/>
</filter>
<filter id="filter6_d_4481_21045" x="64.3179" y="38.3828" width="122.313" height="152.84" filterUnits="userSpaceOnUse" color-interpolation-filters="sRGB">
<feFlood flood-opacity="0" result="BackgroundImageFix"/>
<feColorMatrix in="SourceAlpha" type="matrix" values="0 0 0 0 0 0 0 0 0 0 0 0 0 0 0 0 0 0 127 0" result="hardAlpha"/>
<feOffset dy="7"/>
<feGaussianBlur stdDeviation="7.5"/>
<feColorMatrix type="matrix" values="0 0 0 0 0.333333 0 0 0 0 0.333333 0 0 0 0 0.333333 0 0 0 0.1 0"/>
<feBlend mode="normal" in2="BackgroundImageFix" result="effect1_dropShadow_4481_21045"/>
<feBlend mode="normal" in="SourceGraphic" in2="effect1_dropShadow_4481_21045" result="shape"/>
</filter>
<filter id="filter7_d_4481_21045" x="64.3179" y="38.3828" width="122.313" height="152.84" filterUnits="userSpaceOnUse" color-interpolation-filters="sRGB">
<feFlood flood-opacity="0" result="BackgroundImageFix"/>
<feColorMatrix in="SourceAlpha" type="matrix" values="0 0 0 0 0 0 0 0 0 0 0 0 0 0 0 0 0 0 127 0" result="hardAlpha"/>
<feOffset dy="7"/>
<feGaussianBlur stdDeviation="7.5"/>
<feColorMatrix type="matrix" values="0 0 0 0 0.333333 0 0 0 0 0.333333 0 0 0 0 0.333333 0 0 0 0.1 0"/>
<feBlend mode="normal" in2="BackgroundImageFix" result="effect1_dropShadow_4481_21045"/>
<feBlend mode="normal" in="SourceGraphic" in2="effect1_dropShadow_4481_21045" result="shape"/>
</filter>
</defs>
</svg>
