<svg width="242" height="242" viewBox="0 0 242 242" fill="none" xmlns="http://www.w3.org/2000/svg">
<path d="M97.7994 162.333L88.6379 168.03C88.0607 168.388 87.6864 168.997 87.6281 169.674L85.3237 196.005C85.2202 197.192 86.0983 198.238 87.2851 198.342L170.039 205.582C171.227 205.685 172.274 204.808 172.377 203.62L174.681 177.289C174.74 176.613 174.478 175.948 173.972 175.495L165.909 168.268C165.208 167.64 164.182 167.539 163.372 168.017L154.103 173.485C153.294 173.963 152.267 173.861 151.567 173.233L143.906 166.367C143.191 165.726 142.141 165.635 141.326 166.141L132.59 171.573C131.791 172.07 130.762 171.991 130.048 171.381L121.869 164.385C121.154 163.775 120.126 163.696 119.328 164.193L110.59 169.625C109.777 170.131 108.726 170.04 108.012 169.4L100.379 162.559C99.6647 161.919 98.6139 161.826 97.7994 162.333Z" fill="white"/>
<path d="M170.228 203.433L170.039 205.582L87.2851 198.342L87.4738 196.193L170.228 203.433ZM172.532 177.102L164.468 169.874L155.199 175.343C153.681 176.239 151.782 176.116 150.397 175.063L150.126 174.839L142.465 167.974L133.729 173.406C132.232 174.337 130.331 174.257 128.921 173.236L128.646 173.019L120.467 166.025L111.73 171.457C110.204 172.406 108.261 172.304 106.847 171.233L106.57 171.006L98.9386 164.165L89.7772 169.862L87.2851 198.342L87.0671 198.31C85.9926 198.107 85.2266 197.117 85.3237 196.004L87.6281 169.673C87.6799 169.082 87.9723 168.541 88.4308 168.175L88.6379 168.03L97.7994 162.333C98.6139 161.826 99.6658 161.919 100.379 162.559L108.011 169.399C108.681 169.999 109.646 170.117 110.435 169.713L110.591 169.624L119.328 164.192C120.126 163.696 121.155 163.774 121.869 164.385L130.048 171.381C130.718 171.953 131.663 172.057 132.437 171.659L132.59 171.574L141.326 166.142C142.141 165.635 143.191 165.726 143.906 166.367L151.568 173.234C152.224 173.822 153.166 173.948 153.949 173.567L154.103 173.485L163.372 168.016C164.182 167.539 165.208 167.64 165.909 168.268L173.972 175.495C174.478 175.948 174.74 176.613 174.681 177.289L172.377 203.621C172.274 204.807 171.227 205.685 170.039 205.582L172.532 177.102Z" fill="#AAAAAA"/>
<g filter="url(#filter0_d_4472_113811)">
<path d="M87.6939 85.521C87.6939 84.3293 88.6595 83.3633 89.8516 83.3633H159.059L175.08 99.3096V163.037C175.08 164.844 172.991 165.85 171.578 164.724L164.829 159.35C164.435 159.036 163.878 159.036 163.484 159.35L153.905 166.978C153.512 167.29 152.955 167.29 152.561 166.978L142.982 159.35C142.588 159.036 142.032 159.036 141.638 159.35L132.059 166.978C131.665 167.29 131.108 167.29 130.715 166.978L121.136 159.35C120.742 159.036 120.185 159.036 119.791 159.35L110.212 166.978C109.819 167.29 109.262 167.29 108.868 166.978L99.2893 159.35C98.8955 159.036 98.3388 159.036 97.945 159.35L91.1958 164.724C89.7825 165.85 87.6939 164.844 87.6939 163.037V85.521Z" fill="white"/>
</g>
<g filter="url(#filter1_d_4472_113811)">
<path d="M87.6939 85.521C87.6939 84.4036 88.543 83.4852 89.6315 83.3748L89.8516 83.3633H159.059L175.08 99.3096V163.037L175.073 163.204C174.954 164.849 173.074 165.755 171.713 164.824L171.578 164.724L164.829 159.35C164.435 159.036 163.878 159.036 163.484 159.35L153.905 166.978L153.75 167.081C153.429 167.257 153.038 167.257 152.717 167.081L152.561 166.978L142.982 159.35C142.588 159.036 142.032 159.036 141.638 159.35L132.059 166.978L131.904 167.081C131.582 167.257 131.192 167.257 130.87 167.081L130.715 166.978L121.136 159.35C120.742 159.036 120.185 159.036 119.791 159.35L110.212 166.978L110.057 167.081C109.736 167.257 109.345 167.257 109.024 167.081L108.868 166.978L99.2893 159.35C98.8955 159.036 98.3388 159.036 97.945 159.35L91.1958 164.724L91.061 164.824C89.6995 165.755 87.8201 164.849 87.7004 163.204L87.6939 163.037V85.521ZM89.8516 163.037L96.6008 157.662L96.8284 157.497C97.9105 156.777 99.3238 156.777 100.406 157.497L100.633 157.662L109.54 164.753L118.447 157.662L118.675 157.497C119.757 156.777 121.17 156.777 122.252 157.497L122.48 157.662L131.387 164.753L140.294 157.662L140.521 157.497C141.603 156.777 143.017 156.777 144.099 157.497L144.326 157.662L153.233 164.753L162.14 157.662L162.368 157.497C163.45 156.777 164.863 156.777 165.945 157.497L166.173 157.662L172.922 163.037V100.206L158.168 85.521H89.8516V163.037Z" fill="#AAAAAA"/>
</g>
<path d="M130.847 130.83C130.847 132.022 129.882 132.987 128.69 132.987C127.498 132.987 126.532 132.022 126.532 130.83C126.532 129.637 127.498 128.672 128.69 128.672C129.882 128.672 130.847 129.637 130.847 130.83Z" fill="#AAAAAA"/>
<path d="M117.834 114.066C118.135 113.597 118.741 113.439 119.227 113.686L119.323 113.742L124.491 117.064L124.614 117.149C125.81 118.067 125.182 120.044 123.617 120.044H116.823C116.227 120.044 115.744 119.561 115.744 118.965C115.744 118.369 116.227 117.886 116.823 117.886H121.78L118.157 115.557L118.067 115.492C117.639 115.151 117.531 114.535 117.834 114.066Z" fill="#AAAAAA"/>
<path d="M144.941 114.066C144.64 113.597 144.033 113.439 143.547 113.686L143.451 113.742L138.283 117.064L138.16 117.149C136.964 118.067 137.593 120.044 139.157 120.044H145.951C146.547 120.044 147.03 119.561 147.03 118.965C147.03 118.369 146.547 117.886 145.951 117.886H140.994L144.617 115.557L144.708 115.492C145.135 115.151 145.243 114.535 144.941 114.066Z" fill="#AAAAAA"/>
<path d="M87.5428 132.161C88.0013 131.779 88.6809 131.84 89.0628 132.299C89.4437 132.756 89.3811 133.437 88.9237 133.818C83.8801 138.017 80.7914 141.859 79.5033 144.897C78.8614 146.411 78.7006 147.644 78.8797 148.591C79.0512 149.501 79.5529 150.242 80.4634 150.802C82.4194 152.004 85.3139 152.079 88.3487 151.534C90.9627 151.064 93.4926 150.169 95.2349 149.392L95.9307 149.067L96.0321 149.024C96.5457 148.835 97.1282 149.062 97.3731 149.565C97.618 150.067 97.4368 150.666 96.9718 150.954L96.8758 151.007L96.1238 151.358C94.2456 152.196 91.5453 153.152 88.7306 153.658C85.5609 154.227 81.9911 154.274 79.3339 152.64C77.9371 151.783 77.0516 150.535 76.7597 148.993C76.4752 147.489 76.7732 145.808 77.5166 144.055C78.9995 140.559 82.3859 136.453 87.5428 132.161Z" fill="#AAAAAA"/>
<path d="M95.8976 149.244C96.1899 148.769 96.7919 148.599 97.285 148.838L97.3821 148.891L97.4953 148.955C98.0941 149.265 99.1773 149.429 100.46 148.9C101.01 148.674 101.64 148.936 101.868 149.486C102.094 150.036 101.833 150.667 101.282 150.895C99.4729 151.642 97.7111 151.505 96.4877 150.864L96.2514 150.729L96.1597 150.666C95.726 150.334 95.6052 149.72 95.8976 149.244Z" fill="#AAAAAA"/>
<path d="M175.23 132.698C174.772 132.318 174.093 132.38 173.712 132.839C173.33 133.296 173.393 133.976 173.851 134.357C178.901 138.561 181.879 142.264 183.063 145.156C183.651 146.59 183.767 147.744 183.562 148.635C183.364 149.495 182.843 150.225 181.906 150.801C179.95 152.003 177.056 152.079 174.02 151.533C171.406 151.062 168.877 150.167 167.134 149.39L166.438 149.067L166.337 149.023C165.823 148.835 165.24 149.062 164.996 149.564C164.751 150.067 164.932 150.665 165.397 150.953L165.493 151.006L166.246 151.357C168.125 152.195 170.825 153.151 173.64 153.657C176.808 154.227 180.378 154.273 183.035 152.64C184.405 151.798 185.322 150.607 185.664 149.118C186 147.659 185.756 146.033 185.06 144.336C183.676 140.961 180.38 136.986 175.23 132.698Z" fill="#AAAAAA"/>
<path d="M166.472 149.244C166.18 148.769 165.578 148.599 165.085 148.838L164.988 148.891L164.874 148.955C164.275 149.265 163.192 149.429 161.91 148.9C161.359 148.674 160.729 148.936 160.503 149.486C160.275 150.036 160.537 150.667 161.088 150.895C162.897 151.642 164.66 151.505 165.882 150.864L166.118 150.729L166.21 150.666C166.644 150.334 166.764 149.72 166.472 149.244Z" fill="#AAAAAA"/>
<path d="M61.4858 167.829L61.5602 167.911C61.9059 168.335 61.8807 168.959 61.4858 169.354C61.0908 169.749 60.4657 169.774 60.0419 169.429L59.9601 169.354L57.8026 167.197C57.3813 166.776 57.3813 166.093 57.8026 165.671C58.2239 165.25 58.907 165.25 59.3283 165.671L61.4858 167.829Z" fill="#FF6F3D"/>
<path d="M64.2758 173.671L64.2014 173.589C63.8557 173.165 63.8808 172.54 64.2758 172.144C64.6708 171.749 65.2958 171.724 65.7196 172.07L65.8015 172.144L67.959 174.302C68.3802 174.724 68.3802 175.407 67.959 175.827C67.5377 176.249 66.8545 176.249 66.4333 175.827L64.2758 173.671Z" fill="#FF6F3D"/>
<path d="M65.8015 169.355L65.7196 169.429C65.2958 169.775 64.6708 169.75 64.2758 169.355C63.8808 168.96 63.8557 168.334 64.2014 167.912L64.2758 167.83L66.4333 165.672C66.8545 165.25 67.5377 165.25 67.959 165.672C68.3802 166.093 68.3802 166.777 67.959 167.197L65.8015 169.355Z" fill="#FF6F3D"/>
<path d="M59.9601 172.144L60.0419 172.07C60.4657 171.724 61.0908 171.749 61.4858 172.144C61.8807 172.539 61.9059 173.165 61.5602 173.588L61.4858 173.67L59.3283 175.827C58.907 176.249 58.2239 176.249 57.8026 175.827C57.3813 175.407 57.3813 174.723 57.8026 174.302L59.9601 172.144Z" fill="#FF6F3D"/>
<path d="M117.585 39.4461L117.66 39.5281C118.005 39.9518 117.98 40.5768 117.585 40.9718C117.19 41.3668 116.565 41.392 116.142 41.0463L116.06 40.9718L113.902 38.8144C113.48 38.393 113.48 37.71 113.902 37.2886C114.323 36.8673 115.007 36.8673 115.428 37.2886L117.585 39.4461Z" fill="#FF6F3D"/>
<path d="M120.376 45.2873L120.301 45.2053C119.956 44.7816 119.981 44.1566 120.376 43.7615C120.77 43.3666 121.396 43.3414 121.819 43.6871L121.901 43.7615L124.059 45.919C124.48 46.3404 124.48 47.0234 124.059 47.4447C123.638 47.8661 122.954 47.8661 122.533 47.4447L120.376 45.2873Z" fill="#FF6F3D"/>
<path d="M121.901 40.9718L121.819 41.0462C121.396 41.3919 120.77 41.3667 120.376 40.9718C119.981 40.5768 119.956 39.9517 120.301 39.528L120.376 39.4461L122.533 37.2886C122.954 36.8673 123.638 36.8673 124.059 37.2886C124.48 37.7099 124.48 38.393 124.059 38.8143L121.901 40.9718Z" fill="#FF6F3D"/>
<path d="M116.06 43.7615L116.142 43.6871C116.565 43.3414 117.19 43.3666 117.585 43.7615C117.98 44.1565 118.005 44.7816 117.66 45.2053L117.585 45.2872L115.428 47.4447C115.007 47.866 114.323 47.866 113.902 47.4447C113.48 47.0234 113.48 46.3403 113.902 45.919L116.06 43.7615Z" fill="#FF6F3D"/>
<path d="M35.5935 109.571L35.6679 109.653C36.0136 110.077 35.9884 110.702 35.5935 111.096C35.1985 111.491 34.5734 111.516 34.1497 111.171L34.0678 111.096L31.9103 108.939C31.489 108.518 31.489 107.835 31.9103 107.413C32.3316 106.992 33.0147 106.992 33.436 107.413L35.5935 109.571Z" fill="#FF6F3D"/>
<path d="M38.3839 115.413L38.3095 115.331C37.9638 114.907 37.9889 114.282 38.3839 113.886C38.7789 113.491 39.4039 113.467 39.8277 113.812L39.9096 113.886L42.0671 116.044C42.4883 116.466 42.4883 117.149 42.0671 117.569C41.6458 117.991 40.9626 117.991 40.5414 117.569L38.3839 115.413Z" fill="#FF6F3D"/>
<path d="M39.9096 111.093L39.8277 111.168C39.4039 111.513 38.7789 111.488 38.3839 111.093C37.9889 110.698 37.9638 110.073 38.3095 109.65L38.3839 109.568L40.5414 107.41C40.9626 106.988 41.6458 106.988 42.0671 107.41C42.4883 107.831 42.4883 108.515 42.0671 108.936L39.9096 111.093Z" fill="#FF6F3D"/>
<path d="M34.0678 113.886L34.1497 113.812C34.5734 113.467 35.1985 113.491 35.5935 113.886C35.9884 114.281 36.0136 114.907 35.6679 115.33L35.5935 115.412L33.436 117.569C33.0147 117.991 32.3316 117.991 31.9103 117.569C31.489 117.149 31.489 116.465 31.9103 116.044L34.0678 113.886Z" fill="#FF6F3D"/>
<path d="M203.892 100.938L203.967 101.02C204.312 101.444 204.287 102.069 203.892 102.464C203.498 102.858 202.872 102.883 202.449 102.538L202.367 102.464L200.209 100.306C199.787 99.8851 199.787 99.2022 200.209 98.7804C200.63 98.3597 201.314 98.3597 201.735 98.7804L203.892 100.938Z" fill="#FF6F3D"/>
<path d="M206.682 106.78L206.608 106.698C206.263 106.274 206.287 105.649 206.682 105.253C207.077 104.859 207.703 104.834 208.126 105.179L208.208 105.253L210.365 107.411C210.787 107.833 210.787 108.516 210.365 108.937C209.945 109.358 209.261 109.358 208.84 108.937L206.682 106.78Z" fill="#FF6F3D"/>
<path d="M208.208 102.464L208.126 102.539C207.703 102.884 207.077 102.859 206.682 102.464C206.287 102.07 206.263 101.444 206.608 101.021L206.682 100.939L208.84 98.7812C209.261 98.3594 209.945 98.3594 210.365 98.7812C210.787 99.202 210.787 99.8859 210.365 100.307L208.208 102.464Z" fill="#FF6F3D"/>
<path d="M202.367 105.253L202.449 105.179C202.872 104.834 203.498 104.859 203.892 105.253C204.287 105.648 204.312 106.274 203.967 106.697L203.892 106.779L201.735 108.937C201.314 109.358 200.63 109.358 200.209 108.937C199.787 108.516 199.787 107.832 200.209 107.411L202.367 105.253Z" fill="#FF6F3D"/>
<path d="M158.897 84.4414L174.001 99.5451H159.976C159.381 99.5451 158.897 99.0618 158.897 98.4663V84.4414Z" fill="#AAAAAA"/>
<path d="M105.31 170.072C103.923 164.893 106.997 159.568 112.176 158.181L144.481 149.524C149.66 148.137 154.984 151.211 156.373 156.39C157.76 161.571 154.687 166.895 149.507 168.282L117.203 176.938C112.023 178.326 106.699 175.253 105.31 170.072Z" fill="#F5F5F5"/>
<path d="M155.33 156.67C154.096 152.066 149.364 149.334 144.76 150.567L112.455 159.224C107.851 160.457 105.119 165.19 106.352 169.794C107.586 174.398 112.319 177.13 116.923 175.897L149.227 167.24C153.832 166.007 156.564 161.275 155.33 156.67ZM157.415 156.112C158.956 161.867 155.541 167.783 149.786 169.325L117.482 177.98C111.726 179.523 105.811 176.107 104.268 170.352C102.726 164.597 106.142 158.681 111.897 157.139L144.201 148.484C149.957 146.941 155.872 150.357 157.415 156.112Z" fill="#FF6F3D"/>
<path d="M133.651 159.13C133.497 158.555 132.906 158.213 132.329 158.367L126.078 160.043C125.501 160.197 125.16 160.788 125.314 161.364L126.989 167.616C127.143 168.192 127.736 168.533 128.311 168.379L134.564 166.704C135.139 166.549 135.481 165.958 135.326 165.383L133.651 159.13ZM137.411 164.824C137.873 166.55 136.849 168.325 135.121 168.788L128.87 170.463C127.142 170.926 125.368 169.901 124.905 168.175L123.231 161.922C122.768 160.196 123.792 158.421 125.519 157.958L131.771 156.283C133.498 155.82 135.273 156.845 135.735 158.571L137.411 164.824Z" fill="#FF6F3D"/>
<path d="M146.026 163.631C145.872 163.056 146.213 162.464 146.789 162.311C147.364 162.156 147.956 162.497 148.111 163.073C148.265 163.648 147.923 164.239 147.348 164.394C146.772 164.548 146.181 164.207 146.026 163.631Z" fill="#AAAAAA"/>
<path d="M146.789 162.311C147.364 162.156 147.956 162.497 148.111 163.073C148.265 163.648 147.923 164.239 147.348 164.394C146.772 164.548 146.181 164.207 146.026 163.631C145.872 163.056 146.213 162.464 146.789 162.311Z" fill="#FF6F3D"/>
<path d="M115.806 171.73C115.652 171.155 115.994 170.562 116.569 170.408C117.145 170.254 117.736 170.596 117.891 171.171C118.045 171.747 117.703 172.338 117.128 172.492C116.552 172.647 115.961 172.306 115.806 171.73Z" fill="#AAAAAA"/>
<path d="M116.569 170.408C117.145 170.254 117.736 170.596 117.891 171.171C118.045 171.747 117.703 172.338 117.128 172.492C116.552 172.647 115.961 172.306 115.806 171.73C115.652 171.155 115.994 170.562 116.569 170.408Z" fill="#FF6F3D"/>
<path d="M143.792 155.296C143.638 154.72 143.98 154.129 144.555 153.975C145.131 153.82 145.722 154.162 145.877 154.737C146.031 155.313 145.689 155.905 145.114 156.059C144.539 156.213 143.947 155.871 143.792 155.296Z" fill="#AAAAAA"/>
<path d="M144.555 153.975C145.131 153.82 145.722 154.162 145.877 154.737C146.031 155.313 145.689 155.905 145.114 156.059C144.539 156.213 143.947 155.871 143.792 155.296C143.638 154.72 143.98 154.129 144.555 153.975Z" fill="#FF6F3D"/>
<path d="M113.572 163.394C113.417 162.818 113.759 162.227 114.336 162.072C114.911 161.918 115.502 162.259 115.656 162.835C115.81 163.41 115.469 164.002 114.893 164.157C114.318 164.311 113.726 163.969 113.572 163.394Z" fill="#AAAAAA"/>
<path d="M114.336 162.072C114.911 161.918 115.502 162.259 115.656 162.835C115.81 163.41 115.469 164.002 114.893 164.157C114.318 164.311 113.726 163.969 113.572 163.394C113.417 162.818 113.759 162.227 114.336 162.072Z" fill="#FF6F3D"/>
<path d="M149.078 158.346C148.924 157.771 149.266 157.18 149.841 157.025C150.417 156.871 151.008 157.212 151.162 157.788C151.316 158.363 150.974 158.954 150.399 159.109C149.824 159.263 149.232 158.922 149.078 158.346Z" fill="#AAAAAA"/>
<path d="M149.841 157.025C150.417 156.871 151.008 157.212 151.162 157.788C151.316 158.363 150.974 158.954 150.399 159.109C149.824 159.263 149.232 158.922 149.078 158.346C148.924 157.771 149.266 157.18 149.841 157.025Z" fill="#FF6F3D"/>
<path d="M118.857 166.445C118.703 165.868 119.045 165.277 119.621 165.123C120.196 164.969 120.787 165.311 120.941 165.886C121.096 166.462 120.755 167.053 120.179 167.207C119.604 167.362 119.011 167.02 118.857 166.445Z" fill="#AAAAAA"/>
<path d="M119.621 165.123C120.196 164.969 120.787 165.311 120.941 165.886C121.096 166.462 120.755 167.053 120.179 167.207C119.604 167.362 119.011 167.02 118.857 166.445C118.703 165.868 119.045 165.277 119.621 165.123Z" fill="#FF6F3D"/>
<path d="M140.742 160.581C140.588 160.005 140.928 159.414 141.505 159.26C142.08 159.105 142.672 159.447 142.826 160.022C142.98 160.597 142.638 161.19 142.063 161.344C141.487 161.498 140.896 161.156 140.742 160.581Z" fill="#AAAAAA"/>
<path d="M141.505 159.26C142.08 159.105 142.672 159.447 142.826 160.022C142.98 160.597 142.638 161.19 142.063 161.344C141.487 161.498 140.896 161.156 140.742 160.581C140.588 160.005 140.928 159.414 141.505 159.26Z" fill="#FF6F3D"/>
<path d="M110.521 168.678C110.367 168.103 110.709 167.512 111.284 167.357C111.86 167.203 112.451 167.544 112.605 168.12C112.76 168.695 112.418 169.287 111.843 169.442C111.266 169.596 110.675 169.254 110.521 168.678Z" fill="#AAAAAA"/>
<path d="M111.284 167.357C111.86 167.203 112.451 167.544 112.605 168.12C112.76 168.695 112.418 169.287 111.843 169.442C111.266 169.596 110.675 169.254 110.521 168.678C110.367 168.103 110.709 167.512 111.284 167.357Z" fill="#FF6F3D"/>
<defs>
<filter id="filter0_d_4472_113811" x="72.6939" y="75.3633" width="117.386" height="113.848" filterUnits="userSpaceOnUse" color-interpolation-filters="sRGB">
<feFlood flood-opacity="0" result="BackgroundImageFix"/>
<feColorMatrix in="SourceAlpha" type="matrix" values="0 0 0 0 0 0 0 0 0 0 0 0 0 0 0 0 0 0 127 0" result="hardAlpha"/>
<feOffset dy="7"/>
<feGaussianBlur stdDeviation="7.5"/>
<feColorMatrix type="matrix" values="0 0 0 0 0.333333 0 0 0 0 0.333333 0 0 0 0 0.333333 0 0 0 0.1 0"/>
<feBlend mode="normal" in2="BackgroundImageFix" result="effect1_dropShadow_4472_113811"/>
<feBlend mode="normal" in="SourceGraphic" in2="effect1_dropShadow_4472_113811" result="shape"/>
</filter>
<filter id="filter1_d_4472_113811" x="72.6939" y="75.3633" width="117.386" height="113.852" filterUnits="userSpaceOnUse" color-interpolation-filters="sRGB">
<feFlood flood-opacity="0" result="BackgroundImageFix"/>
<feColorMatrix in="SourceAlpha" type="matrix" values="0 0 0 0 0 0 0 0 0 0 0 0 0 0 0 0 0 0 127 0" result="hardAlpha"/>
<feOffset dy="7"/>
<feGaussianBlur stdDeviation="7.5"/>
<feColorMatrix type="matrix" values="0 0 0 0 0.333333 0 0 0 0 0.333333 0 0 0 0 0.333333 0 0 0 0.1 0"/>
<feBlend mode="normal" in2="BackgroundImageFix" result="effect1_dropShadow_4472_113811"/>
<feBlend mode="normal" in="SourceGraphic" in2="effect1_dropShadow_4472_113811" result="shape"/>
</filter>
</defs>
</svg>
