<svg width="16" height="16" viewBox="0 0 16 16" fill="none" xmlns="http://www.w3.org/2000/svg">
<g clip-path="url(#clip0_2228_34965)">
<path fill-rule="evenodd" clip-rule="evenodd" d="M3.8194 9.61432C3.90137 9.78879 3.82698 9.99685 3.65325 10.0792L0.893167 11.3865L0.886607 11.3893C0.790753 11.43 0.73694 11.4691 0.71006 11.4952C0.73758 11.5249 0.794207 11.5698 0.89646 11.6177L7.20667 14.4919C7.4062 14.5801 7.6988 14.6327 8.0088 14.6327C8.32047 14.6327 8.6048 14.5795 8.7892 14.4938L8.7916 14.4927L15.1133 11.6132C15.2092 11.5725 15.2631 11.5336 15.2899 11.5075C15.2623 11.4776 15.2053 11.4325 15.1021 11.3843L15.0961 11.3815L12.436 10.0771C12.2634 9.99252 12.1918 9.78339 12.2761 9.61012C12.3604 9.43679 12.5687 9.36492 12.7413 9.44959L15.3986 10.7525C15.6977 10.8929 16 11.1401 16 11.5099C16 11.8856 15.6903 12.1257 15.3887 12.2547L9.08147 15.1276C9.081 15.1278 9.0806 15.128 9.0802 15.1282C8.77367 15.2703 8.38053 15.3311 8.0088 15.3311C7.63547 15.3311 7.23893 15.2698 6.92407 15.1301L6.92093 15.1287L0.604533 12.2516C0.304457 12.1115 0 11.8638 0 11.4927C0 11.1181 0.308014 10.8783 0.608826 10.749L3.35641 9.44752C3.53015 9.36525 3.73743 9.43992 3.8194 9.61432ZM15.3077 11.5309C15.3077 11.5309 15.3075 11.5306 15.3073 11.5301L15.3077 11.5309Z" fill="#1D2125" stroke="#1D2125" stroke-width="0.1"/>
<path fill-rule="evenodd" clip-rule="evenodd" d="M3.86883 6.10939C3.94709 6.28552 3.8683 6.492 3.69286 6.57056L0.885887 7.82756C0.78958 7.86856 0.73592 7.90789 0.709447 7.93396C0.736547 7.96369 0.792993 8.00896 0.895747 8.05729L7.19687 10.9395C7.39173 11.035 7.6792 11.0927 7.99127 11.0927C8.30247 11.0927 8.59873 11.0354 8.80867 10.937L8.8116 10.9356L15.1141 8.05276C15.2104 8.01176 15.2641 7.97249 15.2905 7.94636C15.2633 7.91649 15.2065 7.87102 15.1029 7.82242L15.1022 7.82216L12.4409 6.56774C12.2669 6.48578 12.1921 6.27782 12.2738 6.10324C12.3554 5.92866 12.5626 5.85357 12.7365 5.93553L15.3972 7.18962C15.3971 7.18956 15.3973 7.18969 15.3972 7.18962C15.6969 7.33022 16 7.57849 16 7.94876C16 8.32382 15.6918 8.56436 15.3903 8.69389L9.10293 11.5698C9.1024 11.57 9.10193 11.5703 9.1014 11.5706C8.7754 11.723 8.37293 11.7911 7.99127 11.7911C7.6116 11.7911 7.21327 11.7237 6.89607 11.5694L0.602795 8.69076C0.302923 8.55016 0 8.30209 0 7.93162C0 7.55596 0.309092 7.31529 0.610977 7.18589L3.40949 5.93272C3.58493 5.85416 3.79058 5.93325 3.86883 6.10939ZM15.3076 7.96916C15.3076 7.96916 15.3074 7.96882 15.3072 7.96829L15.3076 7.96916ZM0.692407 7.91122C0.692427 7.91122 0.692573 7.91149 0.6928 7.91209L0.692407 7.91122Z" fill="#1D2125" stroke="#1D2125" stroke-width="0.1"/>
<path fill-rule="evenodd" clip-rule="evenodd" d="M8.00873 1.36638C7.69693 1.36638 7.4 1.42298 7.1896 1.5202L7.18667 1.52155L0.884247 4.36286C0.793773 4.40086 0.740947 4.43726 0.713033 4.46268C0.741673 4.49165 0.79728 4.5337 0.894013 4.57854L7.18507 7.4147C7.38387 7.5017 7.67573 7.5537 7.99127 7.5537C8.30473 7.5537 8.60407 7.5023 8.81767 7.4135L15.1157 4.57414C15.2062 4.53614 15.2591 4.49975 15.2869 4.47433C15.2583 4.44536 15.2027 4.40331 15.106 4.35847C15.1055 4.35826 15.1051 4.35804 15.1046 4.35783L8.80493 1.51776C8.60953 1.42338 8.3214 1.36638 8.00873 1.36638ZM15.3084 4.5008C15.3083 4.5008 15.3082 4.50055 15.308 4.50006L15.3084 4.5008ZM0.691627 4.43621C0.69164 4.43621 0.691773 4.43646 0.691987 4.43695L0.691627 4.43621ZM9.1022 0.886182C8.78547 0.734335 8.38787 0.667969 8.00873 0.667969C7.6276 0.667969 7.22587 0.735022 6.90033 0.885029L0.611326 3.7203C0.312161 3.84699 0 4.08448 0 4.46006C0 4.83094 0.306818 5.07606 0.604547 5.21362L6.90173 8.05257L6.9048 8.05397C7.2188 8.19184 7.614 8.25217 7.99127 8.25217C8.3694 8.25217 8.76767 8.19157 9.09007 8.05617L15.3887 5.2167C15.6879 5.09001 16 4.85252 16 4.47694C16 4.10606 15.6932 3.86094 15.3955 3.72338L9.1022 0.886182Z" fill="#1D2125" stroke="#1D2125" stroke-width="0.1"/>
</g>
<defs>
<clipPath id="clip0_2228_34965">
<rect width="16" height="16" fill="white"/>
</clipPath>
</defs>
</svg>
