<svg width="218" height="68" viewBox="0 0 218 68" fill="none" xmlns="http://www.w3.org/2000/svg">
<g clip-path="url(#clip0_2562_13920)">
<path d="M68.8403 61.0004V35.6861C68.8403 30.4035 66.6221 27.7389 62.233 27.7389C57.8203 27.7389 55.6021 30.3801 55.6021 35.6861V61.0004H42.5999V35.6861C42.5999 30.4035 40.4289 27.7389 36.087 27.7389C31.6743 27.7389 29.4797 30.3801 29.4797 35.6861V61.0004H16.4775V34.1901C16.4775 28.6738 18.4125 24.4898 22.2825 21.6616C25.6805 19.1371 30.3056 17.8516 36.1106 17.8516C41.9864 17.8516 46.3283 19.3475 49.1128 22.3394C51.5197 19.3475 55.8853 17.8516 62.233 17.8516C68.038 17.8516 72.6395 19.1138 76.0375 21.6616C79.9075 24.4898 81.8425 28.6738 81.8425 34.1901V61.0004H68.8403Z" fill="#F98012"/>
<path d="M41.7247 15.9107L54.6325 6.56098L54.4674 6C31.1767 8.82828 20.5814 10.8385 0.5 22.3619L0.68878 22.8762L2.29341 22.8996C2.15182 24.489 1.89225 28.4159 2.22261 34.3529C0.00445387 40.7341 2.17542 45.0817 4.2048 49.8033C4.53516 44.8947 4.48797 39.5186 2.97773 34.1659C2.67096 28.299 2.93054 24.4189 3.07212 22.9229L16.3811 23.0398C16.3811 23.0398 16.2867 27.0134 16.7822 30.7767C28.6753 34.9139 40.6392 30.7533 46.987 20.5621C45.1936 18.5753 41.7247 15.9107 41.7247 15.9107Z" fill="#333333"/>
</g>
<g clip-path="url(#clip1_2562_13920)">
<path fill-rule="evenodd" clip-rule="evenodd" d="M111.257 29.7574C112.344 28.6705 113.843 28 115.5 28C118.814 28 121.5 30.6863 121.5 34H123.5C123.5 29.5817 119.918 26 115.5 26C113.294 26 111.295 26.8941 109.849 28.3373L109.847 28.3394L109.823 28.3623C109.804 28.3815 109.777 28.4086 109.743 28.4435C109.682 28.5047 109.6 28.5898 109.5 28.698V27H107.5V31C107.5 31.5523 107.948 32 108.5 32H112.5V30H111.021C111.082 29.9347 111.132 29.883 111.169 29.8454C111.196 29.8179 111.216 29.7979 111.229 29.7856L111.241 29.773L111.243 29.7715L111.243 29.7712L111.243 29.7711L111.243 29.771L111.25 29.7648L111.257 29.7574ZM115.5 40C112.186 40 109.5 37.3137 109.5 34H107.5C107.5 38.4183 111.082 42 115.5 42C117.89 42 120.035 40.9513 121.5 39.2915V41H123.5V37C123.5 36.4477 123.052 36 122.5 36H118.5V38H119.972C118.873 39.2286 117.276 40 115.5 40Z" fill="#C3C4C7"/>
</g>
<path fill-rule="evenodd" clip-rule="evenodd" d="M180.078 59.0602L156.976 48.4181C155.008 47.489 155.008 46.0531 156.976 45.2085L165.019 41.4922L179.992 48.4181C181.96 49.3471 185.126 49.3471 187.008 48.4181L201.981 41.4922L210.024 45.2085C211.992 46.1376 211.992 47.5734 210.024 48.4181L186.922 59.0602C185.126 59.9049 181.96 59.9049 180.078 59.0602Z" fill="#FF6F3D"/>
<path fill-rule="evenodd" clip-rule="evenodd" d="M180.003 45.8906L156.971 35.2361C155.01 34.3059 155.01 32.8684 156.971 32.0228L164.819 28.3867L180.003 35.4052C181.965 36.3353 185.121 36.3353 186.997 35.4052L202.181 28.3867L210.029 32.0228C211.99 32.9529 211.99 34.3905 210.029 35.2361L186.997 45.8906C185.035 46.8208 181.879 46.8208 180.003 45.8906Z" fill="#95C038"/>
<path fill-rule="evenodd" clip-rule="evenodd" d="M180.003 32.8571L156.971 22.3558C155.01 21.4391 155.01 20.0222 156.971 19.1888L180.003 8.68758C181.965 7.77081 185.121 7.77081 186.997 8.68758L210.029 19.1888C211.99 20.1056 211.99 21.5224 210.029 22.3558L186.997 32.8571C185.035 33.6905 181.879 33.6905 180.003 32.8571Z" fill="#5DC0E8"/>
<defs>
<clipPath id="clip0_2562_13920">
<rect x="0.5" width="81" height="68" rx="2" fill="white"/>
</clipPath>
<clipPath id="clip1_2562_13920">
<rect width="16.0001" height="15.9997" fill="white" transform="translate(107.5 26)"/>
</clipPath>
</defs>
</svg>
